<svg width="1024" height="1024" viewBox="0 0 1024 1024" xmlns="http://www.w3.org/2000/svg">
  <defs>
    <filter id="glow" x="-50%" y="-50%" width="200%" height="200%">
      <feGaussianBlur stdDeviation="15" result="coloredBlur"/>
      <feMerge>
        <feMergeNode in="coloredBlur"/>
        <feMergeNode in="SourceGraphic"/>
      </feMerge>
    </filter>
    <filter id="shadow" x="-50%" y="-50%" width="200%" height="200%">
      <feDropShadow dx="0" dy="8" stdDeviation="12" flood-color="#000000" flood-opacity="0.3"/>
    </filter>
  </defs>

  <!-- Background with rounded corners (iOS style) -->
  <rect width="1024" height="1024" rx="224" ry="224" fill="#0D1A33"/>

  <!-- Circle with white fill and gold border -->
  <circle cx="512" cy="512" r="330" fill="#FFFFFF" stroke="#D9A621" stroke-width="28" filter="url(#glow)"/>

  <!-- GH Monogram in Navy -->
  <g transform="translate(307, 332) scale(3.4)" filter="url(#shadow)">
    <!-- G - clean geometric design with connected bar -->
    <path d="M 10 20 L 10 80 L 50 80 L 50 50 L 35 50 L 35 68 L 22 68 L 22 32 L 50 32 L 50 20 Z" fill="#0D1A33"/>
    <!-- H - bold and balanced -->
    <path d="M 65 20 L 65 80 L 77 80 L 77 56 L 98 56 L 98 80 L 110 80 L 110 20 L 98 20 L 98 44 L 77 44 L 77 20 Z" fill="#0D1A33"/>
  </g>
</svg>
